<svg width="58" height="58" viewBox="0 0 58 58" fill="none" xmlns="http://www.w3.org/2000/svg">
<g clip-path="url(#clip0_441_532)">
<path d="M36.9151 52.9368L49.9111 53.2159C51.7164 53.2547 53.2641 52.6558 54.5549 51.4197C55.8452 50.1833 56.51 48.6628 56.5487 46.8574L56.8278 33.8618C56.8666 32.0566 56.268 30.5092 55.0317 29.2188C53.7952 27.9285 52.2742 27.2635 50.4693 27.2247L42.8884 27.0619C41.9862 27.0426 41.2257 26.7101 40.6074 26.0649C39.9892 25.4201 39.6899 24.6458 39.7093 23.7429L39.7325 22.6605C39.7839 20.2688 40.674 18.2457 42.4023 16.5896C44.1308 14.9342 46.1907 14.132 48.5826 14.1833L50.7483 14.2298C51.3353 14.2424 51.8474 14.0384 52.2855 13.6192C52.7232 13.2 52.9486 12.6968 52.9611 12.1102L53.0542 7.77772C53.0668 7.19202 52.8633 6.67865 52.4439 6.24093C52.0239 5.80343 51.5215 5.57752 50.9344 5.56491L48.7686 5.5184C46.4219 5.46801 44.1728 5.87748 42.0209 6.74514C39.8691 7.61293 37.9982 8.80897 36.4079 10.3324C34.818 11.856 33.5429 13.6735 32.5835 15.7861C31.6241 17.8986 31.1191 20.128 31.0687 22.4744L30.557 46.2997C30.5183 48.1051 31.1171 49.6527 32.3533 50.9431C33.5894 52.2334 35.1103 52.8981 36.9151 52.9368Z" fill="#CD1C0C"/>
<path d="M2.03012 50.2918C3.26613 51.5822 4.78681 52.247 6.59203 52.2857L19.5876 52.5648C21.3929 52.6036 22.9405 52.0047 24.2309 50.7686C25.5212 49.5321 26.1857 48.0116 26.2245 46.2063L26.5036 33.2107C26.5423 31.4055 25.9437 29.858 24.7077 28.5676C23.4716 27.2774 21.9509 26.6124 20.1458 26.5736L12.5649 26.4108C11.6627 26.3914 10.9016 26.0589 10.2835 25.4138C9.66593 24.7687 9.36591 23.9947 9.3853 23.0918L9.40854 22.0094C9.4599 19.6177 10.35 17.5946 12.0787 15.9385C13.807 14.2831 15.8664 13.4808 18.2587 13.5322L20.4248 13.5787C21.0114 13.5913 21.5239 13.3873 21.9615 12.9681C22.3995 12.5489 22.625 12.0457 22.6376 11.4591L22.7307 7.12661C22.7433 6.54091 22.5395 6.02754 22.12 5.58981C21.7009 5.15234 21.1976 4.9264 20.6109 4.9138L18.4447 4.86729C16.0984 4.8169 13.8494 5.22637 11.6973 6.09403C9.54584 6.96183 7.6752 8.15787 6.08477 9.68132C4.49445 11.2049 3.21872 13.0228 2.25984 15.135C1.30061 17.2471 0.795308 19.4769 0.744921 21.8232L0.233286 45.6486C0.194874 47.454 0.79315 49.0015 2.03012 50.2918Z" fill="#CD1C0C"/>
</g>
<defs>
<clipPath id="clip0_441_532">
<rect width="56.3284" height="56.3283" fill="white" transform="translate(56.3154 57.6885) rotate(-178.77)"/>
</clipPath>
</defs>
</svg>
