<svg width="59" height="58" viewBox="0 0 59 58" fill="none" xmlns="http://www.w3.org/2000/svg">
<g clip-path="url(#clip0_1_329)">
<path d="M37.673 52.773L50.6691 53.0521C52.4743 53.0909 54.022 52.492 55.3129 51.2559C56.6031 50.0195 57.2679 48.499 57.3067 46.6936L57.5857 33.698C57.6245 31.8928 57.026 30.3453 55.7896 29.0549C54.5531 27.7647 53.0321 27.0997 51.2272 27.0609L43.6463 26.8981C42.7441 26.8787 41.9836 26.5462 41.3654 25.9011C40.7471 25.2563 40.4478 24.482 40.4672 23.5791L40.4905 22.4967C40.5418 20.105 41.4319 18.0819 43.1603 16.4257C44.8887 14.7704 46.9486 13.9681 49.3406 14.0195L51.5063 14.066C52.0933 14.0786 52.6054 13.8746 53.0434 13.4554C53.4811 13.0362 53.7065 12.533 53.7191 11.9464L53.8121 7.6139C53.8247 7.0282 53.6212 6.51483 53.2019 6.07711C52.7818 5.63962 52.2795 5.4137 51.6924 5.40109L49.5265 5.35458C47.1798 5.30419 44.9307 5.71366 42.7788 6.58133C40.627 7.44912 38.7562 8.64515 37.1659 10.1686C35.5759 11.6922 34.3009 13.5096 33.3414 15.6223C32.382 17.7348 31.877 19.9642 31.8266 22.3105L31.315 46.1359C31.2762 47.9413 31.8751 49.4888 33.1112 50.7792C34.3473 52.0696 35.8683 52.7343 37.673 52.773Z" fill="#F82510"/>
<path d="M2.78817 50.128C4.02419 51.4184 5.54487 52.0832 7.35009 52.1219L20.3457 52.401C22.1509 52.4398 23.6986 51.8409 24.989 50.6048C26.2793 49.3683 26.9438 47.8478 26.9826 46.0425L27.2616 33.0469C27.3004 31.2417 26.7018 29.6942 25.4657 28.4038C24.2296 27.1136 22.7089 26.4486 20.9038 26.4098L13.3229 26.247C12.4208 26.2276 11.6596 25.8951 11.0415 25.25C10.424 24.6049 10.124 23.8309 10.1434 22.928L10.1666 21.8456C10.218 19.4538 11.108 17.4308 12.8368 15.7746C14.5651 14.1193 16.6245 13.317 19.0167 13.3684L21.1829 13.4149C21.7694 13.4275 22.282 13.2235 22.7196 12.8043C23.1575 12.3851 23.3831 11.8819 23.3957 11.2953L23.4887 6.96279C23.5013 6.37709 23.2976 5.86372 22.878 5.42599C22.4589 4.98852 21.9556 4.76258 21.369 4.74999L19.2028 4.70347C16.8564 4.65308 14.6074 5.06255 12.4553 5.93022C10.3039 6.79801 8.43326 7.99406 6.84282 9.5175C5.2525 11.0411 3.97678 12.859 3.0179 14.9712C2.05866 17.0832 1.55337 19.3131 1.50298 21.6594L0.991343 45.4848C0.95293 47.2902 1.55121 48.8377 2.78817 50.128Z" fill="#F82510"/>
</g>
<defs>
<clipPath id="clip0_1_329">
<rect width="56.3284" height="56.3283" fill="white" transform="translate(57.0734 57.5247) rotate(-178.77)"/>
</clipPath>
</defs>
</svg>
