<svg width="145" height="117" viewBox="0 0 145 117" fill="none" xmlns="http://www.w3.org/2000/svg">
<path d="M124.745 30.9306C116.416 31.4812 109.215 25.2266 108.66 16.9607C108.105 8.69473 114.407 1.54752 122.736 0.996927C131.065 0.44634 138.267 6.70088 138.821 14.9668C139.376 23.2328 133.074 30.38 124.745 30.9306Z" fill="#D08480"/>
<path d="M7.24609 115.869C-1.0827 116.419 -8.28426 110.165 -8.83903 101.899C-9.3938 93.6328 -3.09172 86.4856 5.23708 85.935C13.5659 85.3844 20.7674 91.639 21.3222 99.9049C21.877 108.171 15.5749 115.318 7.24609 115.869Z" fill="#D08480"/>
<path d="M126.998 44.3832C133.309 49.8053 133.996 59.2783 128.533 65.5417C123.07 71.8051 113.525 72.4871 107.214 67.065L79.0268 42.8483C72.7158 37.4262 72.0286 27.9532 77.4919 21.6899C82.9552 15.4265 92.5002 14.7445 98.8112 20.1666L126.998 44.3832Z" fill="#D08480"/>
<path d="M55.5477 78.1708C61.8587 83.5929 62.5459 93.0659 57.0826 99.3293C51.6193 105.593 42.0743 106.275 35.7633 100.853L7.57651 76.6359C1.26551 71.2138 0.578331 61.7408 6.04165 55.4775C11.505 49.2141 21.0499 48.5321 27.3609 53.9542L55.5477 78.1708Z" fill="#D08480"/>
<path d="M109.977 76.6554C116.288 82.0775 116.975 91.5505 111.512 97.8139C106.049 104.077 96.5037 104.759 90.1927 99.3372L28.3436 46.1996C22.0326 40.7775 21.3454 31.3045 26.8088 25.0411C32.2721 18.7777 41.817 18.0957 48.128 23.5178L109.977 76.6554Z" fill="#D08480"/>
</svg>
