<svg width="114" height="120" viewBox="0 0 114 120" fill="none" xmlns="http://www.w3.org/2000/svg">
<path d="M5.98341 63.1215C9.31521 67.4832 8.4455 73.6938 4.04086 76.9932C-0.363792 80.2926 -6.63543 79.4313 -9.96723 75.0695C-13.299 70.7078 -12.4293 64.4972 -8.02468 61.1978C-3.62003 57.8985 2.6516 58.7597 5.98341 63.1215Z" fill="#D08480"/>
<path d="M24.3266 49.3812C27.6584 53.743 26.7887 59.9535 22.3841 63.2529C17.9794 66.5523 11.7078 65.691 8.376 61.3293C5.04419 56.9675 5.9139 50.7569 10.3186 47.4576C14.7232 44.1582 20.9948 45.0194 24.3266 49.3812Z" fill="#D08480"/>
<path d="M42.6699 35.6409C46.0017 40.0027 45.132 46.2133 40.7273 49.5126C36.3227 52.812 30.051 51.9508 26.7192 47.589C23.3874 43.2272 24.2571 37.0166 28.6618 33.7173C33.0664 30.4179 39.3381 31.2792 42.6699 35.6409Z" fill="#D08480"/>
<path d="M61.0131 21.9006C64.3449 26.2624 63.4752 32.473 59.0706 35.7723C54.6659 39.0717 48.3943 38.2105 45.0625 33.8487C41.7307 29.4869 42.6004 23.2764 47.005 19.977C51.4097 16.6776 57.6813 17.5389 61.0131 21.9006Z" fill="#D08480"/>
<path d="M79.3563 8.16035C82.6881 12.5221 81.8184 18.7327 77.4138 22.0321C73.0091 25.3314 66.7375 24.4702 63.4057 20.1084C60.0739 15.7467 60.9436 9.53609 65.3482 6.23672C69.7529 2.93735 76.0245 3.79859 79.3563 8.16035Z" fill="#D08480"/>
<path d="M19.8588 81.2861C23.1906 85.6479 22.3209 91.8585 17.9162 95.1578C13.5116 98.4572 7.23994 97.596 3.90814 93.2342C0.57633 88.8724 1.44604 82.6619 5.85069 79.3625C10.2553 76.0631 16.527 76.9244 19.8588 81.2861Z" fill="#D08480"/>
<path d="M38.202 67.5458C41.5338 71.9076 40.6641 78.1182 36.2595 81.4176C31.8548 84.7169 25.5832 83.8557 22.2514 79.4939C18.9196 75.1322 19.7893 68.9216 24.1939 65.6222C28.5986 62.3228 34.8702 63.1841 38.202 67.5458Z" fill="#D08480"/>
<path d="M56.5452 53.8056C59.877 58.1673 59.0073 64.3779 54.6027 67.6773C50.198 70.9766 43.9264 70.1154 40.5946 65.7536C37.2628 61.3919 38.1325 55.1813 42.5372 51.8819C46.9418 48.5826 53.2134 49.4438 56.5452 53.8056Z" fill="#D08480"/>
<path d="M74.8885 40.0653C78.2203 44.427 77.3506 50.6376 72.9459 53.937C68.5413 57.2364 62.2696 56.3751 58.9378 52.0134C55.606 47.6516 56.4757 41.441 60.8804 38.1416C65.285 34.8423 71.5567 35.7035 74.8885 40.0653Z" fill="#D08480"/>
<path d="M93.2317 26.325C96.5635 30.6868 95.6938 36.8973 91.2892 40.1967C86.8845 43.4961 80.6129 42.6348 77.2811 38.2731C73.9493 33.9113 74.819 27.7007 79.2236 24.4014C83.6283 21.102 89.8999 21.9632 93.2317 26.325Z" fill="#D08480"/>
<path d="M33.7341 99.4508C37.0659 103.813 36.1962 110.023 31.7916 113.322C27.3869 116.622 21.1153 115.761 17.7835 111.399C14.4517 107.037 15.3214 100.827 19.7261 97.5271C24.1307 94.2278 30.4023 95.089 33.7341 99.4508Z" fill="#D08480"/>
<path d="M52.0774 85.7105C55.4092 90.0723 54.5395 96.2828 50.1348 99.5822C45.7302 102.882 39.4585 102.02 36.1267 97.6586C32.7949 93.2968 33.6646 87.0862 38.0693 83.7869C42.4739 80.4875 48.7456 81.3487 52.0774 85.7105Z" fill="#D08480"/>
<path d="M70.4206 71.9702C73.7524 76.332 72.8827 82.5426 68.4781 85.8419C64.0734 89.1413 57.8018 88.28 54.47 83.9183C51.1382 79.5565 52.0079 73.3459 56.4125 70.0466C60.8172 66.7472 67.0888 67.6084 70.4206 71.9702Z" fill="#D08480"/>
<path d="M88.7638 58.2299C92.0956 62.5917 91.2259 68.8023 86.8213 72.1016C82.4166 75.401 76.145 74.5398 72.8132 70.178C69.4814 65.8162 70.3511 59.6057 74.7557 56.3063C79.1604 53.0069 85.432 53.8682 88.7638 58.2299Z" fill="#D08480"/>
<path d="M107.107 44.4897C110.439 48.8514 109.569 55.062 105.165 58.3614C100.76 61.6607 94.4882 60.7995 91.1564 56.4377C87.8246 52.076 88.6943 45.8654 93.099 42.566C97.5036 39.2666 103.775 40.1279 107.107 44.4897Z" fill="#D08480"/>
</svg>
