<svg width="89" height="107" viewBox="0 0 89 107" fill="none" xmlns="http://www.w3.org/2000/svg">
<path d="M-8.37583 48.9309C-5.10798 53.3408 -6.06817 59.538 -10.5205 62.7728C-14.9728 66.0076 -21.2312 65.055 -24.499 60.6451C-27.7669 56.2352 -26.8067 50.038 -22.3544 46.8032C-17.9021 43.5684 -11.6437 44.521 -8.37583 48.9309Z" fill="#DAB6B6"/>
<path d="M10.1659 35.4596C13.4337 39.8695 12.4735 46.0667 8.0212 49.3015C3.56891 52.5363 -2.68951 51.5836 -5.95735 47.1738C-9.22519 42.7639 -8.26499 36.5666 -3.81269 33.3319C0.639605 30.0971 6.89801 31.0497 10.1659 35.4596Z" fill="#DAB6B6"/>
<path d="M28.7075 21.9883C31.9754 26.3981 31.0152 32.5954 26.5629 35.8302C22.1106 39.0649 15.8522 38.1123 12.5843 33.7024C9.31649 29.2925 10.2767 23.0953 14.729 19.8605C19.1813 16.6258 25.4397 17.5784 28.7075 21.9883Z" fill="#DAB6B6"/>
<path d="M47.2492 8.51695C50.517 12.9268 49.5568 19.1241 45.1045 22.3589C40.6522 25.5936 34.3938 24.641 31.126 20.2311C27.8582 15.8212 28.8184 9.62401 33.2707 6.38923C37.7229 3.15445 43.9813 4.10706 47.2492 8.51695Z" fill="#DAB6B6"/>
<path d="M5.23316 67.296C8.501 71.7059 7.54081 77.9031 3.08851 81.1379C-1.36378 84.3726 -7.62219 83.42 -10.89 79.0101C-14.1579 74.6003 -13.1977 68.403 -8.74538 65.1682C-4.29309 61.9335 1.96532 62.8861 5.23316 67.296Z" fill="#DAB6B6"/>
<path d="M23.7748 53.8246C27.0427 58.2345 26.0825 64.4318 21.6302 67.6665C17.1779 70.9013 10.9195 69.9487 7.65164 65.5388C4.3838 61.1289 5.34399 54.9317 9.79629 51.6969C14.2486 48.4621 20.507 49.4148 23.7748 53.8246Z" fill="#DAB6B6"/>
<path d="M42.3165 40.3533C45.5844 44.7632 44.6242 50.9604 40.1719 54.1952C35.7196 57.43 29.4612 56.4774 26.1933 52.0675C22.9255 47.6576 23.8857 41.4604 28.338 38.2256C32.7903 34.9908 39.0487 35.9434 42.3165 40.3533Z" fill="#DAB6B6"/>
<path d="M60.8582 26.882C64.126 31.2919 63.1658 37.4891 58.7135 40.7239C54.2612 43.9587 48.0028 43.0061 44.735 38.5962C41.4672 34.1863 42.4273 27.9891 46.8796 24.7543C51.3319 21.5195 57.5903 22.4721 60.8582 26.882Z" fill="#DAB6B6"/>
<path d="M72.9342 4.51156C76.202 8.92145 75.2419 15.1186 70.7896 18.3534C66.3373 21.5882 60.0789 20.6356 56.811 16.2257C53.5432 11.8158 54.5034 5.61859 58.9557 2.3838C63.408 -0.850979 69.6663 0.101665 72.9342 4.51156Z" fill="#DAB6B6"/>
<path d="M18.8421 85.661C22.11 90.0709 21.1498 96.2682 16.6975 99.5029C12.2452 102.738 5.98678 101.785 2.71894 97.3752C-0.548897 92.9653 0.411306 86.7681 4.8636 83.5333C9.3159 80.2985 15.5743 81.2511 18.8421 85.661Z" fill="#DAB6B6"/>
<path d="M37.3838 72.1897C40.6517 76.5996 39.6915 82.7968 35.2392 86.0316C30.7869 89.2664 24.5285 88.3138 21.2606 83.9039C17.9928 79.494 18.953 73.2968 23.4053 70.062C27.8576 66.8272 34.116 67.7798 37.3838 72.1897Z" fill="#DAB6B6"/>
<path d="M55.9255 58.7184C59.1933 63.1283 58.2331 69.3255 53.7809 72.5603C49.3286 75.7951 43.0701 74.8425 39.8023 70.4326C36.5345 66.0227 37.4947 59.8255 41.9469 56.5907C46.3992 53.3559 52.6576 54.3085 55.9255 58.7184Z" fill="#DAB6B6"/>
<path d="M74.4672 45.2471C77.735 49.657 76.7748 55.8542 72.3225 59.089C67.8702 62.3238 61.6118 61.3711 58.344 56.9613C55.0761 52.5514 56.0363 46.3542 60.4886 43.1194C64.9409 39.8846 71.1993 40.8372 74.4672 45.2471Z" fill="#DAB6B6"/>
<path d="M86.5431 22.8766C89.811 27.2865 88.8508 33.4837 84.3985 36.7185C79.9462 39.9533 73.6878 39.0007 70.42 34.5908C67.1522 30.1809 68.1123 23.9837 72.5646 20.7489C77.0169 17.5141 83.2753 18.4667 86.5431 22.8766Z" fill="#DAB6B6"/>
<path d="M-19.9003 71.9597C-16.6325 76.3696 -17.5926 82.5669 -22.0449 85.8016C-26.4972 89.0364 -32.7556 88.0838 -36.0235 83.6739C-39.2913 79.264 -38.3311 73.0668 -33.8788 69.832C-29.4265 66.5972 -23.1681 67.5498 -19.9003 71.9597Z" fill="#DAB6B6"/>
<path d="M-6.29132 90.3248C-3.02348 94.7347 -3.98366 100.932 -8.43596 104.167C-12.8883 107.401 -19.1467 106.449 -22.4145 102.039C-25.6824 97.6291 -24.7222 91.4319 -20.2699 88.1971C-15.8176 84.9623 -9.55916 85.9149 -6.29132 90.3248Z" fill="#DAB6B6"/>
</svg>
